PathFileType  4	(X/Y/Z) C:\Users\antoi\Documents\MyRepositories\mobilecap\ResultsAnalysis
DataRate	CameraRate	NumFrames	NumMarkers	Units	OrigDataRate	OrigDataStartFrame	OrigNumFrames
100.0	100.0	4	51	mm	100.0	163	1302
Frame#	Time	r_knee			r_shank_antsup			r_ankle			r_calc			r_5meta			r_toe			L_knee			L_shank_antsup			L_ankle			L_calc			L_5meta			L_toe			r_sh2			r_sh3			r_sh4			L_sh2			L_sh3			r_thigh1			r_thigh2			r_thigh3			r_thigh4			r_thigh5			L_thigh1			L_thigh2			L_thigh3			L_thigh4			r.ASIS			r.PSIS			L.ASIS			L.PSIS			C7			R_Shoulder			L_Shoulder			R_Sternum			L_Sternum			R_humerus			R_elbow_med			R_elbow_lat			R_forearm			R_wrist_radius			R_wrist_ulna			L_humerus			L_elbow_med			L_elbow_lat			L_forearm			L_wrist_radius			L_wrist_ulna			R_HJC			L_HJC			R_HJC_reg			L_HJC_reg			
		X1	Y1	Z1	X2	Y2	Z2	X3	Y3	Z3	X4	Y4	Z4	X5	Y5	Z5	X6	Y6	Z6	X7	Y7	Z7	X8	Y8	Z8	X9	Y9	Z9	X10	Y10	Z10	X11	Y11	Z11	X12	Y12	Z12	X13	Y13	Z13	X14	Y14	Z14	X15	Y15	Z15	X16	Y16	Z16	X17	Y17	Z17	X18	Y18	Z18	X19	Y19	Z19	X20	Y20	Z20	X21	Y21	Z21	X22	Y22	Z22	X23	Y23	Z23	X24	Y24	Z24	X25	Y25	Z25	X26	Y26	Z26	X27	Y27	Z27	X28	Y28	Z28	X29	Y29	Z29	X30	Y30	Z30	X31	Y31	Z31	X32	Y32	Z32	X33	Y33	Z33	X34	Y34	Z34	X35	Y35	Z35	X36	Y36	Z36	X37	Y37	Z37	X38	Y38	Z38	X39	Y39	Z39	X40	Y40	Z40	X41	Y41	Z41	X42	Y42	Z42	X43	Y43	Z43	X44	Y44	Z44	X45	Y45	Z45	X46	Y46	Z46	X47	Y47	Z47	X48	Y48	Z48	X49	Y49	Z49	X50	Y50	Z50	X51	Y51	Z51	

163	1.62000000	-98.23655	454.53044	-428.12755	-55.63216	371.25954	-426.77061	-260.41292	98.40512	-430.60074	-334.73558	65.09982	-464.91353	-165.54147	43.79014	-389.21309	-116.32455	68.60992	-443.86335	-108.92517	453.99008	-940.25179	-79.02616	353.90641	-958.34238	-260.23648	99.75364	-925.33467	-329.36682	64.27256	-874.57427	-163.72196	40.54609	-971.93764	-119.31005	62.48891	-918.99877	-128.00845	281.57864	-406.92959	-120.85732	417.04628	-410.24076	-188.11004	326.50614	-404.34775	-155.91576	399.62157	-949.94392	-210.84028	288.78292	-954.54536	-313.09512	683.40673	-486.24035	-230.14909	614.43648	-464.56638	-248.78843	563.51013	-426.19322	-386.78020	602.38057	-456.20001	-293.34777	530.52078	-439.15340	-318.15467	634.38440	-919.01974	-198.66698	568.12557	-929.85821	-371.09645	535.54579	-880.25662	-247.43419	473.22131	-912.33274	-295.93863	685.95258	-559.99563	-434.65359	801.80215	-638.64928	-299.59594	668.90176	-794.81932	-436.57997	806.21904	-730.44400	-113.17492	1040.62441	-689.26456	-15.93626	1013.83320	-564.48694	-20.58742	1014.98298	-817.21482	-6.15523	935.32984	-660.09021	-2.21753	932.92815	-710.12039	27.41657	987.49023	-454.23679	117.57082	816.04443	-348.76285	120.86595	888.55770	-310.62150	207.24364	938.88972	-406.91029	285.70657	975.07429	-501.61254	316.98772	964.06896	-487.64730	29.35132	984.39917	-904.02707	152.38236	794.41862	-982.23963	150.92142	870.00128	-1020.52118	214.14129	917.60533	-943.52399	312.58567	971.04295	-850.10371	340.49157	966.27060	-871.33179	-398.48056	650.32074	-573.90795	-400.10628	641.68806	-780.19148	-390.04082	644.86878	-591.91419	-393.29758	652.33437	-747.11170	
164	1.63000000	-99.08313	455.33365	-428.44526	-56.64754	372.07711	-426.94462	-260.51860	98.39347	-430.53296	-334.75937	65.08174	-464.85146	-165.59995	43.74463	-389.17918	-116.44007	68.69388	-443.80409	-110.62026	454.72907	-940.45937	-80.55946	354.83213	-958.95241	-260.40618	99.76185	-925.60347	-329.47166	64.21780	-874.54392	-163.75296	40.50646	-971.99091	-119.39016	62.61689	-919.15024	-128.83314	281.91220	-406.99160	-122.24310	417.40954	-410.61978	-189.00642	326.78137	-404.25066	-157.60750	400.38244	-950.31503	-211.89126	289.45865	-955.22960	-310.86041	687.67423	-486.02143	-228.56411	617.88821	-464.28245	-248.29813	566.57592	-426.36152	-385.65963	607.42468	-456.44566	-293.16660	534.28826	-440.10261	-317.10799	638.83272	-919.65844	-198.60917	570.62694	-930.47945	-371.17726	540.59169	-879.77961	-248.51378	476.42961	-911.91380	-295.39074	691.82292	-560.32037	-433.90857	808.24889	-638.05507	-299.35670	675.32477	-795.36465	-436.07798	812.82126	-730.20851	-114.88823	1050.14807	-689.39745	-17.46112	1023.92004	-564.22057	-22.36380	1025.31086	-817.79872	-7.05465	945.90813	-660.39533	-3.05292	943.54915	-710.26546	25.36475	996.61591	-453.74703	113.57784	824.24245	-347.95495	117.30649	896.73988	-309.74673	204.25033	946.28738	-406.00238	283.04019	982.06773	-500.55598	314.19031	970.85731	-486.63289	27.27663	993.87113	-905.05943	148.20144	802.80117	-984.14660	147.04612	878.59942	-1022.77152	210.66387	925.76026	-945.71344	309.42261	978.72045	-852.52122	337.24574	973.80127	-873.79962	-397.94620	656.40493	-574.12315	-400.02856	648.39849	-780.42754	-389.57009	651.17600	-592.08444	-393.22542	658.88062	-747.38345	
165	1.64000000	-99.96888	456.15502	-428.53388	-57.73998	372.92798	-427.03164	-260.63561	98.34261	-430.56521	-334.78627	65.03225	-464.75983	-165.62790	43.75606	-389.16957	-116.48000	68.81020	-443.78100	-112.20445	455.62171	-940.73494	-82.15813	355.78344	-959.47527	-260.57012	99.82771	-926.05395	-329.53296	64.21069	-874.52621	-163.78074	40.45564	-972.05527	-119.45565	62.69245	-919.19453	-129.49343	282.07824	-407.34220	-123.75694	417.74415	-411.04298	-190.00533	326.95821	-404.04316	-159.28113	401.17330	-950.63743	-212.66815	290.57974	-956.59455	-308.71453	691.85278	-485.91822	-227.31726	620.99573	-464.04805	-247.77729	569.80073	-426.48064	-384.55177	612.48845	-456.74195	-292.99186	538.04208	-440.85947	-316.07274	643.03914	-920.04862	-198.52989	573.03890	-931.08341	-371.24322	545.71431	-879.53512	-249.62344	479.50778	-911.27576	-294.94538	697.78078	-561.06515	-433.15343	814.69401	-637.46327	-299.11245	681.57673	-795.76644	-435.54479	819.34655	-729.97586	-116.64783	1059.85336	-689.61922	-18.98206	1034.04588	-563.93795	-24.18654	1035.83787	-818.39589	-7.90289	956.80881	-660.81391	-3.98578	954.33439	-710.48608	23.08963	1006.01101	-453.14647	109.43393	832.27112	-347.47400	113.54400	904.92613	-308.74351	201.02467	953.59347	-405.12695	280.27554	989.10633	-499.47606	311.29980	977.38812	-485.48742	25.12418	1003.41171	-906.16209	143.97072	811.53703	-985.97459	142.88011	887.00622	-1024.74295	206.83671	933.88233	-948.08129	306.05701	986.40687	-855.14282	333.75393	981.22583	-876.30077	-397.41681	662.51489	-574.35027	-400.01690	655.02173	-780.66899	-389.06805	657.66692	-592.56329	-393.07590	665.46524	-747.61156	
166	1.65000000	-100.94694	456.95259	-428.63625	-58.91998	373.67160	-427.17786	-260.70860	98.33110	-430.51116	-334.82316	64.96972	-464.63562	-165.63902	43.79232	-389.11843	-116.52079	68.88656	-443.77185	-113.70431	456.68588	-941.06377	-83.78262	356.66757	-959.77233	-260.71251	99.87475	-926.36950	-329.52626	64.21668	-874.51410	-163.79686	40.43438	-972.15073	-119.51255	62.77362	-919.26554	-130.10260	282.52894	-407.59809	-125.08886	418.29627	-411.34504	-191.15639	327.57192	-404.24602	-161.01224	401.79939	-950.81034	-213.54982	291.48895	-957.64670	-306.59898	695.95302	-485.62708	-225.91122	623.77350	-463.90301	-247.29042	573.30699	-426.17266	-383.38934	617.48377	-457.05873	-292.77288	541.81896	-441.31134	-314.98551	647.12791	-920.32385	-198.48299	575.45003	-931.63919	-371.25992	551.01503	-879.41524	-250.76994	482.65527	-910.85125	-293.96321	703.97115	-561.10036	-432.34745	821.16168	-636.89850	-298.47900	687.94982	-796.10600	-434.95255	825.77181	-729.90548	-118.42339	1069.76807	-689.85700	-20.57197	1044.21867	-563.65411	-26.19989	1046.44006	-819.10334	-8.88870	967.91720	-661.26933	-5.02830	965.30851	-710.78232	20.55952	1015.44278	-452.49419	104.95861	840.33335	-347.11617	109.63365	912.78801	-307.99588	197.60138	960.93924	-404.10452	277.42897	995.87457	-498.31387	308.33776	983.69337	-484.18903	22.83993	1013.06825	-907.38816	139.77066	820.37818	-987.39037	138.46424	895.26408	-1026.61646	202.77703	941.96947	-950.51378	302.50758	993.94198	-857.78476	330.07594	988.55636	-878.96496	-396.47441	668.77026	-574.32194	-399.48202	661.50167	-780.64322	-388.20233	664.10218	-592.42207	-392.55117	671.79714	-747.66311	
